<mxfile host="Electron" modified="2024-01-10T11:48:56.087Z" agent="Mozilla/5.0 (Windows NT 10.0; Win64; x64) AppleWebKit/537.36 (KHTML, like Gecko) draw.io/22.1.16 Chrome/120.0.6099.109 Electron/28.1.0 Safari/537.36" etag="-H_qut-4nb80d5HwTjpt" version="22.1.16" type="device">
  <diagram id="C5RBs43oDa-KdzZeNtuy" name="Page-1">
    <mxGraphModel dx="2074" dy="734" grid="1" gridSize="10" guides="1" tooltips="1" connect="1" arrows="1" fold="1" page="1" pageScale="1" pageWidth="827" pageHeight="1169" math="0" shadow="0">
      <root>
        <mxCell id="WIyWlLk6GJQsqaUBKTNV-0" />
        <mxCell id="WIyWlLk6GJQsqaUBKTNV-1" parent="WIyWlLk6GJQsqaUBKTNV-0" />
        <mxCell id="BIAJ-L611Rqp3ycmqJVY-12" value="GUI : Form" style="swimlane;fontStyle=1;align=center;verticalAlign=top;childLayout=stackLayout;horizontal=1;startSize=26;horizontalStack=0;resizeParent=1;resizeParentMax=0;resizeLast=0;collapsible=1;marginBottom=0;whiteSpace=wrap;html=1;" vertex="1" parent="WIyWlLk6GJQsqaUBKTNV-1">
          <mxGeometry x="-500" y="250" width="460" height="280" as="geometry" />
        </mxCell>
        <mxCell id="BIAJ-L611Rqp3ycmqJVY-13" value="- webcamFeed: WebCamFeed&lt;br&gt;- db: MesseContext" style="text;strokeColor=none;fillColor=none;align=left;verticalAlign=top;spacingLeft=4;spacingRight=4;overflow=hidden;rotatable=0;points=[[0,0.5],[1,0.5]];portConstraint=eastwest;whiteSpace=wrap;html=1;" vertex="1" parent="BIAJ-L611Rqp3ycmqJVY-12">
          <mxGeometry y="26" width="460" height="44" as="geometry" />
        </mxCell>
        <mxCell id="BIAJ-L611Rqp3ycmqJVY-14" value="" style="line;strokeWidth=1;fillColor=none;align=left;verticalAlign=middle;spacingTop=-1;spacingLeft=3;spacingRight=3;rotatable=0;labelPosition=right;points=[];portConstraint=eastwest;strokeColor=inherit;" vertex="1" parent="BIAJ-L611Rqp3ycmqJVY-12">
          <mxGeometry y="70" width="460" height="8" as="geometry" />
        </mxCell>
        <mxCell id="BIAJ-L611Rqp3ycmqJVY-15" value="- GUI()&lt;br&gt;- GUI_Load( sender: object, e: EventArgs) : void&lt;br&gt;- tbPLZ_TextChanged(sender: object, e: EventArgs): void&lt;br&gt;- cbFirmenvertreter_CheckedChanged(sender: object, e: EventArgs): void&lt;br&gt;- bWebcamStarten_Click(sender: object, e: EventArgs): void&lt;br&gt;- bBildAufnahemen_Click(sender: object, e: EventArgs): void&lt;br&gt;- bNeuesBildAufnehmen_Click(sender: object, e: EventArgs): void&lt;br&gt;- bAusweisErstellen_Click(sender: object, e: EventArgs): void&lt;br&gt;- GewahlteProduktgruppenUmwandeln(): Produktgruppe[]&lt;br&gt;- ResetForm(): void&lt;br&gt;- GUI_FormClosed(sender: object, e: FormClosedEventArgs) : void&lt;br&gt;- FotoToBase64(foto: Image): string&lt;br&gt;- CheckFinishConditions(): void" style="text;strokeColor=none;fillColor=none;align=left;verticalAlign=top;spacingLeft=4;spacingRight=4;overflow=hidden;rotatable=0;points=[[0,0.5],[1,0.5]];portConstraint=eastwest;whiteSpace=wrap;html=1;" vertex="1" parent="BIAJ-L611Rqp3ycmqJVY-12">
          <mxGeometry y="78" width="460" height="202" as="geometry" />
        </mxCell>
        <mxCell id="BIAJ-L611Rqp3ycmqJVY-16" value="WebcamFeed" style="swimlane;fontStyle=1;align=center;verticalAlign=top;childLayout=stackLayout;horizontal=1;startSize=26;horizontalStack=0;resizeParent=1;resizeParentMax=0;resizeLast=0;collapsible=1;marginBottom=0;whiteSpace=wrap;html=1;" vertex="1" parent="WIyWlLk6GJQsqaUBKTNV-1">
          <mxGeometry x="-800" y="60" width="320" height="150" as="geometry" />
        </mxCell>
        <mxCell id="BIAJ-L611Rqp3ycmqJVY-17" value="- feedTarget: PictureBox&lt;br&gt;- webcam: AForge.Video.DirectShow.VideoCaptureDevice" style="text;strokeColor=none;fillColor=none;align=left;verticalAlign=top;spacingLeft=4;spacingRight=4;overflow=hidden;rotatable=0;points=[[0,0.5],[1,0.5]];portConstraint=eastwest;whiteSpace=wrap;html=1;" vertex="1" parent="BIAJ-L611Rqp3ycmqJVY-16">
          <mxGeometry y="26" width="320" height="44" as="geometry" />
        </mxCell>
        <mxCell id="BIAJ-L611Rqp3ycmqJVY-18" value="" style="line;strokeWidth=1;fillColor=none;align=left;verticalAlign=middle;spacingTop=-1;spacingLeft=3;spacingRight=3;rotatable=0;labelPosition=right;points=[];portConstraint=eastwest;strokeColor=inherit;" vertex="1" parent="BIAJ-L611Rqp3ycmqJVY-16">
          <mxGeometry y="70" width="320" height="8" as="geometry" />
        </mxCell>
        <mxCell id="BIAJ-L611Rqp3ycmqJVY-19" value="+ WebcamFeed(feedTarget: PictureBox)&lt;br&gt;+ Start(): void&lt;br&gt;+ FrameEventHandler(): void&lt;br&gt;+ StopFeed(): void" style="text;strokeColor=none;fillColor=none;align=left;verticalAlign=top;spacingLeft=4;spacingRight=4;overflow=hidden;rotatable=0;points=[[0,0.5],[1,0.5]];portConstraint=eastwest;whiteSpace=wrap;html=1;" vertex="1" parent="BIAJ-L611Rqp3ycmqJVY-16">
          <mxGeometry y="78" width="320" height="72" as="geometry" />
        </mxCell>
        <mxCell id="BIAJ-L611Rqp3ycmqJVY-20" value="MesseContext: BaseContext" style="swimlane;fontStyle=1;align=center;verticalAlign=top;childLayout=stackLayout;horizontal=1;startSize=26;horizontalStack=0;resizeParent=1;resizeParentMax=0;resizeLast=0;collapsible=1;marginBottom=0;whiteSpace=wrap;html=1;" vertex="1" parent="WIyWlLk6GJQsqaUBKTNV-1">
          <mxGeometry x="-780" y="670" width="230" height="60" as="geometry" />
        </mxCell>
        <mxCell id="BIAJ-L611Rqp3ycmqJVY-22" value="" style="line;strokeWidth=1;fillColor=none;align=left;verticalAlign=middle;spacingTop=-1;spacingLeft=3;spacingRight=3;rotatable=0;labelPosition=right;points=[];portConstraint=eastwest;strokeColor=inherit;" vertex="1" parent="BIAJ-L611Rqp3ycmqJVY-20">
          <mxGeometry y="26" width="230" height="8" as="geometry" />
        </mxCell>
        <mxCell id="BIAJ-L611Rqp3ycmqJVY-23" value="+ MesseContext()" style="text;strokeColor=none;fillColor=none;align=left;verticalAlign=top;spacingLeft=4;spacingRight=4;overflow=hidden;rotatable=0;points=[[0,0.5],[1,0.5]];portConstraint=eastwest;whiteSpace=wrap;html=1;" vertex="1" parent="BIAJ-L611Rqp3ycmqJVY-20">
          <mxGeometry y="34" width="230" height="26" as="geometry" />
        </mxCell>
        <mxCell id="BIAJ-L611Rqp3ycmqJVY-24" value="ApiContext" style="swimlane;fontStyle=1;align=center;verticalAlign=top;childLayout=stackLayout;horizontal=1;startSize=26;horizontalStack=0;resizeParent=1;resizeParentMax=0;resizeLast=0;collapsible=1;marginBottom=0;whiteSpace=wrap;html=1;" vertex="1" parent="WIyWlLk6GJQsqaUBKTNV-1">
          <mxGeometry x="-780" y="760" width="230" height="70" as="geometry" />
        </mxCell>
        <mxCell id="BIAJ-L611Rqp3ycmqJVY-25" value="" style="line;strokeWidth=1;fillColor=none;align=left;verticalAlign=middle;spacingTop=-1;spacingLeft=3;spacingRight=3;rotatable=0;labelPosition=right;points=[];portConstraint=eastwest;strokeColor=inherit;" vertex="1" parent="BIAJ-L611Rqp3ycmqJVY-24">
          <mxGeometry y="26" width="230" height="8" as="geometry" />
        </mxCell>
        <mxCell id="BIAJ-L611Rqp3ycmqJVY-26" value="+ ApiContext()&lt;br&gt;+ ApiContext(options: DbContextOptions)" style="text;strokeColor=none;fillColor=none;align=left;verticalAlign=top;spacingLeft=4;spacingRight=4;overflow=hidden;rotatable=0;points=[[0,0.5],[1,0.5]];portConstraint=eastwest;whiteSpace=wrap;html=1;" vertex="1" parent="BIAJ-L611Rqp3ycmqJVY-24">
          <mxGeometry y="34" width="230" height="36" as="geometry" />
        </mxCell>
        <mxCell id="BIAJ-L611Rqp3ycmqJVY-27" value="BaseContext" style="swimlane;fontStyle=1;align=center;verticalAlign=top;childLayout=stackLayout;horizontal=1;startSize=26;horizontalStack=0;resizeParent=1;resizeParentMax=0;resizeLast=0;collapsible=1;marginBottom=0;whiteSpace=wrap;html=1;" vertex="1" parent="WIyWlLk6GJQsqaUBKTNV-1">
          <mxGeometry x="-380" y="690" width="310" height="260" as="geometry" />
        </mxCell>
        <mxCell id="BIAJ-L611Rqp3ycmqJVY-28" value="+ Kunden: DbSet&amp;lt;Kunde&amp;gt;&lt;br&gt;+ Firmen: DbSet&amp;lt;Firma&amp;gt;&lt;br&gt;+ Produktgruppe: DbSet&amp;lt;Produktgruppe&amp;gt;&lt;br&gt;+ ProduktgruppeKunde: DbSet&amp;lt;ProduktgruppeKunde&amp;gt;&lt;br&gt;+ Users: DbSet&amp;lt;User&amp;gt;&lt;br&gt;+ DbPath: string" style="text;strokeColor=none;fillColor=none;align=left;verticalAlign=top;spacingLeft=4;spacingRight=4;overflow=hidden;rotatable=0;points=[[0,0.5],[1,0.5]];portConstraint=eastwest;whiteSpace=wrap;html=1;" vertex="1" parent="BIAJ-L611Rqp3ycmqJVY-27">
          <mxGeometry y="26" width="310" height="94" as="geometry" />
        </mxCell>
        <mxCell id="BIAJ-L611Rqp3ycmqJVY-29" value="" style="line;strokeWidth=1;fillColor=none;align=left;verticalAlign=middle;spacingTop=-1;spacingLeft=3;spacingRight=3;rotatable=0;labelPosition=right;points=[];portConstraint=eastwest;strokeColor=inherit;" vertex="1" parent="BIAJ-L611Rqp3ycmqJVY-27">
          <mxGeometry y="120" width="310" height="8" as="geometry" />
        </mxCell>
        <mxCell id="BIAJ-L611Rqp3ycmqJVY-30" value="+ method(type): type" style="text;strokeColor=none;fillColor=none;align=left;verticalAlign=top;spacingLeft=4;spacingRight=4;overflow=hidden;rotatable=0;points=[[0,0.5],[1,0.5]];portConstraint=eastwest;whiteSpace=wrap;html=1;" vertex="1" parent="BIAJ-L611Rqp3ycmqJVY-27">
          <mxGeometry y="128" width="310" height="132" as="geometry" />
        </mxCell>
      </root>
    </mxGraphModel>
  </diagram>
</mxfile>
